# File created by Blade
# Date/Time:  Tue Apr 07 20:13:55 2015
# Frame Rate: 120.000 fps
#------------------------------------------------------
:FULLY-SPECIFIED
:DEGREES
1476
root 1.675767 33.047701 -6.144551 -31.946220 25.397355 -27.701418
Spine 17.462816 -13.702187 13.275191
Head 17.887747 -7.790250 13.753354
LeftShoulder -3.663307 38.429839 25.645191
LeftArm 83.591287 25.057708 -38.278646
LeftForeArm -60.504461 -0.000000 87.114885
LeftHand 3.459661 -0.000000 25.659666
LeftHandThumb1 -26.253704 0.000000 33.147579
RightShoulder -7.165445 -9.254908 -15.030415
RightArm 12.513533 -18.566916 75.908511
RightForeArm 27.102282 -0.000000 102.247370
RightHand 2.771402 -0.000000 11.163922
RightHandThumb1 -24.326973 -0.000000 -32.862282
LeftUpLeg 11.071873 6.165782 22.604698
LeftLeg 23.648034 -0.000000 -0.000000
LeftFoot -22.829983 15.297950 -13.070356
LeftToeBase -10.703034 -0.000000 0.000000
RightUpLeg -122.044335 -5.968475 16.661883
RightLeg 88.849382 -0.000000 -0.000000
RightFoot 42.339188 -9.901466 1.679541
RightToeBase 36.775491 -0.000000 -0.000000
1477
root 1.723096 33.009661 -6.129866 -31.889070 25.330320 -27.405151
Spine 17.532251 -13.890448 13.210431
Head 18.014993 -7.668512 13.136033
LeftShoulder -3.733135 38.503448 25.426862
LeftArm 83.461238 25.065995 -38.338747
LeftForeArm -60.410072 -0.000000 87.200574
LeftHand 3.537081 0.000000 25.916732
LeftHandThumb1 -26.253704 0.000000 33.147579
RightShoulder -7.101652 -9.296143 -15.042581
RightArm 12.555347 -18.564873 75.992553
RightForeArm 26.923131 -0.000000 102.226433
RightHand 2.807715 -0.000000 11.219276
RightHandThumb1 -24.326973 -0.000000 -32.862282
LeftUpLeg 11.086400 6.516338 22.407088
LeftLeg 24.035490 -0.000000 -0.000000
LeftFoot -22.668656 15.469562 -12.451214
LeftToeBase -11.097733 -0.000000 0.000000
RightUpLeg -122.004433 -5.883397 16.738560
RightLeg 89.413169 -0.000000 -0.000000
RightFoot 42.347812 -9.875411 1.872896
RightToeBase 36.923088 -0.000000 -0.000000
1478
root 1.770380 32.978590 -6.114878 -31.811479 25.228690 -27.174547
Spine 17.525186 -14.023969 13.262524
Head 18.180474 -7.623823 12.513174
LeftShoulder -3.770380 38.606982 25.194682
LeftArm 83.425126 25.024809 -38.309101
LeftForeArm -60.448700 0.000000 87.245647
LeftHand 3.942089 -0.000000 26.691878
LeftHandThumb1 -26.253704 0.000000 33.147579
RightShoulder -7.120461 -9.331901 -15.050744
RightArm 12.661463 -18.629115 76.057690
RightForeArm 26.805646 -0.000000 102.157786
RightHand 2.789109 -0.000000 11.191809
RightHandThumb1 -24.326973 -0.000000 -32.862282
LeftUpLeg 11.123093 6.795225 22.231812
LeftLeg 24.279598 -0.000000 -0.000000
LeftFoot -22.515802 15.820525 -11.777611
LeftToeBase -11.522903 -0.000000 0.000000
RightUpLeg -121.943100 -5.811317 16.779842
RightLeg 89.964824 -0.000000 -0.000000
RightFoot 42.330798 -9.790207 2.068361
RightToeBase 36.862350 -0.000000 -0.000000
1479
root 1.813366 32.955795 -6.097395 -31.776841 25.086026 -27.060450
Spine 17.503293 -14.265714 13.435487
Head 18.384499 -7.470429 11.847920
LeftShoulder -3.879905 38.779702 24.912913
LeftArm 83.326026 24.959123 -38.377224
LeftForeArm -60.378648 -0.000000 87.315090
LeftHand 3.885498 -0.000000 27.102571
LeftHandThumb1 -26.253704 0.000000 33.147579
RightShoulder -7.101371 -9.264538 -15.087670
RightArm 12.761989 -18.791215 76.072555
RightForeArm 26.890716 -0.000000 102.081301
RightHand 2.797165 -0.000000 11.175078
RightHandThumb1 -24.326973 -0.000000 -32.862282
LeftUpLeg 11.176437 6.961802 22.137724
LeftLeg 24.452199 -0.000000 -0.000000
LeftFoot -22.388229 16.249953 -11.182866
LeftToeBase -11.907527 -0.000000 0.000000
RightUpLeg -121.812754 -5.757831 16.802673
RightLeg 90.484539 -0.000000 -0.000000
RightFoot 42.306279 -9.823370 2.339380
RightToeBase 36.705362 -0.000000 -0.000000
1480
root 1.856274 32.935492 -6.082863 -31.657570 24.996117 -26.891552
Spine 17.410661 -14.438359 13.542568
Head 18.595537 -7.388291 11.277510
LeftShoulder -3.932268 38.838540 24.744380
LeftArm 83.147110 24.991372 -38.516980
LeftForeArm -60.541286 -0.000000 87.365607
LeftHand 3.916480 -0.000000 27.342457
LeftHandThumb1 -26.253704 0.000000 33.147579
RightShoulder -7.164715 -9.196748 -15.074606
RightArm 12.904039 -18.980510 76.145521
RightForeArm 26.802690 -0.000000 101.973345
RightHand 2.781459 -0.000000 11.032127
RightHandThumb1 -24.326973 -0.000000 -32.862282
LeftUpLeg 11.157260 6.980278 21.876588
LeftLeg 24.616167 -0.000000 -0.000000
LeftFoot -22.309354 16.887069 -10.648972
LeftToeBase -12.104704 -0.000000 0.000000
RightUpLeg -121.719183 -5.723165 16.728752
RightLeg 90.964635 -0.000000 -0.000000
RightFoot 42.350748 -9.814517 2.423101
RightToeBase 36.697711 -0.000000 -0.000000
1481
root 1.899584 32.921728 -6.067962 -31.545588 24.911745 -26.767562
Spine 17.291606 -14.655725 13.684371
Head 18.839854 -7.274342 10.737766
LeftShoulder -4.039146 38.968686 24.576865
LeftArm 83.012040 24.992132 -38.664920
LeftForeArm -60.634725 -0.000000 87.386286
LeftHand 3.950743 -0.000000 27.644446
LeftHandThumb1 -26.253704 0.000000 33.147579
RightShoulder -7.174607 -9.075230 -15.086777
RightArm 13.011872 -19.091080 76.311363
RightForeArm 26.510166 -0.000000 101.819940
RightHand 2.780385 -0.000000 11.087532
RightHandThumb1 -24.326973 -0.000000 -32.862282
LeftUpLeg 11.140137 6.850317 21.590913
LeftLeg 24.712157 -0.000000 -0.000000
LeftFoot -22.192432 17.651515 -10.110441
LeftToeBase -12.324877 -0.000000 0.000000
RightUpLeg -121.591820 -5.723428 16.603573
RightLeg 91.444901 -0.000000 -0.000000
RightFoot 42.353071 -9.819565 2.543024
RightToeBase 36.618515 -0.000000 -0.000000
1482
root 1.939391 32.912466 -6.053846 -31.384440 24.852618 -26.653563
Spine 17.109007 -14.848807 13.834027
Head 19.099460 -7.197683 10.280130
LeftShoulder -4.129283 39.112120 24.471185
LeftArm 82.867694 24.965308 -38.835463
LeftForeArm -60.730475 -0.000000 87.380996
LeftHand 3.736730 0.000000 27.595642
LeftHandThumb1 -26.253704 0.000000 33.147579
RightShoulder -7.200950 -8.935333 -15.097052
RightArm 13.072599 -19.190745 76.489900
RightForeArm 26.192035 0.000000 101.700834
RightHand 2.684220 0.000000 11.198290
RightHandThumb1 -24.326973 -0.000000 -32.862282
LeftUpLeg 11.061532 6.590348 21.239185
LeftLeg 24.773552 -0.000000 -0.000000
LeftFoot -22.089727 18.526402 -9.681931
LeftToeBase -12.428123 -0.000000 0.000000
RightUpLeg -121.490034 -5.745817 16.404820
RightLeg 91.908417 -0.000000 -0.000000
RightFoot 42.376853 -9.731108 2.623817
RightToeBase 36.651675 -0.000000 -0.000000
1483
root 1.971857 32.912737 -6.043822 -31.220449 24.750946 -26.628549
Spine 16.892716 -14.988828 14.086898
Head 19.350150 -7.165896 9.911140
LeftShoulder -4.212977 39.178549 24.429587
LeftArm 82.736696 25.001138 -38.988507
LeftForeArm -60.937017 -0.000000 87.309140
LeftHand 3.631609 0.000000 27.582361
LeftHandThumb1 -26.253704 0.000000 33.147579
RightShoulder -7.225775 -8.884115 -15.048311
RightArm 13.217540 -19.263741 76.603960
RightForeArm 25.882304 -0.000000 101.609668
RightHand 2.629121 0.000000 11.175942
RightHandThumb1 -24.326973 -0.000000 -32.862282
LeftUpLeg 10.934548 6.270242 20.950607
LeftLeg 24.822800 -0.000000 -0.000000
LeftFoot -21.965705 19.460855 -9.326960
LeftToeBase -12.403888 -0.000000 0.000000
RightUpLeg -121.358588 -5.754328 16.237415
RightLeg 92.313340 -0.000000 -0.000000
RightFoot 42.417564 -9.662733 2.693666
RightToeBase 36.645222 -0.000000 -0.000000
